<svg version="1" xmlns="http://www.w3.org/2000/svg" width="2310.667" height="2310.667" viewBox="0 0 1733.000000 1733.000000"><path d="M542.9 81.4c-.2.2-3.8.7-7.9 1-47.6 4.4-98.4 25.8-137.5 57.9-7.6 6.2-30.3 29.3-36.6 37.2-8.5 10.5-17.6 24.3-26.8 40.5-4.6 8-9.6 16.5-11.1 19s-3.9 6.5-5.2 9c-1.4 2.5-6.7 11.7-11.8 20.5-13.6 23.5-31.4 54.4-34 59-1.2 2.2-2.6 4.4-3 5-.4.5-1.9 3-3.2 5.5-2.5 4.4-8.2 14.4-19.5 34-3.1 5.2-6.3 10.9-7.3 12.6-1 1.6-9.5 16.5-19 32.9s-18 31.3-19 32.9c-1 1.7-4.1 7.1-6.9 11.9-2.8 4.9-5.1 9.2-5.1 9.7s-.4 1-.9 1.2c-.5.1-2 2.5-3.5 5.3-1.5 2.7-3.5 6.3-4.5 8-1 1.6-3.3 5.7-5.1 9-1.8 3.3-3.6 6.4-4 7-.4.5-1.7 2.6-2.8 4.5-6.6 11.7-17.5 30.7-18.2 31.5-.4.5-2.1 3.5-3.7 6.5-3.2 5.8-12.2 21.4-45.2 78.2-5 8.7-9.1 16.2-9.1 16.7s-.3 1.1-.8 1.3c-.4.1-5.5 8.5-11.2 18.6-5.8 10.1-12.3 21.4-14.5 25.3-2.2 3.8-7.8 13.5-12.4 21.7-4.7 8.1-10.1 17.4-12.1 20.7-15.6 25.7-26.2 50.1-32.5 74.8-3.5 13.4-5.2 22.6-7.4 40.2-.9 7.1-.7 51.2.2 55.1.3 1.2.8 4.5 1.2 7.5 1.8 14.6 9.9 45.6 15.1 57.6.8 1.8 2.1 5 3 7 3.9 9.1 10.1 21.4 14.1 28.1 2.3 4.1 4.3 7.6 4.3 7.8 0 .2 1.1 2.1 2.4 4.2 1.3 2 11 18.8 21.6 37.2 10.6 18.4 23.4 40.5 28.3 49 5 8.5 10.4 18 12 21 1.7 3 4.5 7.9 6.4 10.8 1.8 2.9 3.3 5.4 3.3 5.7 0 .4 4.4 8 14.7 25.3 2.4 4 4.3 7.4 4.3 7.6 0 .2 5.2 9.3 11.5 20.1 6.3 10.9 11.5 19.9 11.5 20.2 0 .2 1.8 3.2 4 6.7s4 6.7 4 7.1c0 .5.6 1.6 1.4 2.4.7.9 3.1 4.7 5.1 8.6 2.1 3.8 4.1 7.4 4.5 8 .5.5 1.7 2.6 2.7 4.5 4.2 7.4 36.9 64 42.7 74 3.5 5.8 6.6 11.2 7 12 .4.8 1.2 2.4 1.9 3.5 1 1.6 5.1 8.9 14.2 24.7.6 1 3.2 5.5 5.9 10 2.7 4.6 6.3 10.8 7.9 13.8 1.7 3 3.8 6.6 4.7 8 .9 1.4 3.2 5.2 5 8.5 4.2 7.5 4.8 8.6 15.7 27.5 18 31 31.6 54.6 34.1 59 1.3 2.5 2.8 4.9 3.2 5.5.4.5 1.9 3 3.2 5.5 1.4 2.5 4.9 8.5 7.8 13.5 2.9 4.9 7.1 12.1 9.3 16 17.8 31.2 46 61.3 77.1 82.7 19.5 13.4 45.5 26.2 67.3 33.2 7.4 2.3 28 7.4 33.3 8.1 2.4.4 4.7.8 5 1 .3.2 4.1.7 8.5 1.2 10.3 1 661.5 1.1 671.8 0 6.2-.7 25.1-4.2 32.7-6.2 28.3-7.2 59.1-21.4 83.3-38.2 30.4-21.1 59-52.2 77-83.9 3.6-6.4 23.3-40.4 31.7-54.9 2.9-5 6.4-11 7.8-13.5 1.4-2.5 5.6-9.9 9.5-16.5 3.8-6.6 7.7-13.4 8.7-15 2.7-4.7 20.5-35.7 28.5-49.5 9.3-16 17.1-29.6 23.9-41.3 2.9-5 9.6-16.6 14.8-25.7 12.8-22.2 19.8-34.2 27.9-48.3 3.8-6.5 6.9-12 6.9-12.2 0-.3 1.5-2.8 3.3-5.7 1.9-2.9 4.7-7.8 6.4-10.8 1.7-3 6.2-10.9 10-17.5 3.9-6.6 13.9-23.9 22.3-38.5 8.4-14.6 16.1-27.9 17.1-29.5 1.1-1.7 2.2-3.7 2.6-4.5.4-.8 3.5-6.2 6.8-12 5.8-9.8 30.8-53.2 35.3-61 1.1-1.9 5.2-9.1 9.2-16 4-6.9 8.1-14 9.1-15.8 1.1-1.7 2.7-4.7 3.8-6.5 1-1.7 6-10.4 11.1-19.2 8.8-15.2 18.3-33.7 22.4-43.5 5.7-13.8 13.4-40.9 15.1-53 .4-2.4.8-4.7 1-5 1.1-1.8 2-19.5 2-40 0-22.6-.6-31.7-2.6-42.5-.5-2.8-1.2-6.6-1.5-8.5-.3-1.9-.8-3.8-1-4.1-.2-.3-.6-2.1-.9-4-1.9-11.3-10.4-35.4-19-53.4-3.2-6.8-31.8-57.6-38.5-68.5-1.1-1.9-15.6-26.9-19.1-33-1.4-2.5-9.1-15.8-17.1-29.5-7.9-13.8-15.6-27-17-29.5-1.4-2.5-4.9-8.6-7.8-13.5-2.9-5-6.2-10.6-7.3-12.5-8.8-15.6-21-36.7-21.7-37.5-.4-.6-2.1-3.5-3.7-6.5-3.2-5.9-51.5-89.6-61.9-107.3-3.5-6-6.4-11-6.4-11.2 0-.2-2.8-5-6.1-10.7-3.4-5.7-7.3-12.3-8.7-14.8-1.4-2.5-4.8-8.6-7.7-13.5-10.7-18.3-19.5-33.7-19.5-34.2 0-.2-1.1-1.9-2.5-3.7-1.4-1.8-2.5-3.6-2.5-4 0-.4-3.3-6.4-7.4-13.4-8.9-15.2-31.8-55-48.1-83.2-14.7-25.6-22-36.8-32.3-49.5-28.2-34.9-63.4-61.1-105-77.9-13.6-5.5-32-11.1-42.7-13-2.8-.6-5.2-1-10-2-1.2-.2-4.8-.7-8-1.1-3.3-.4-6.9-1-8-1.4-2.1-.6-654.9-1.4-655.6-.7zM1148.2 379c1 1.2 6.8 10.9 9 15 1.4 2.5 9 15.8 17 29.5 8 13.8 21.4 36.9 29.7 51.5 8.4 14.6 17 29.4 19.1 33 3 5 24.3 41.9 39 67.5.9 1.6 4.3 7.5 7.5 13s10.9 19 17.3 30c12 20.9 17.6 30.6 28.6 49.3 3.6 6.2 6.6 11.4 6.6 11.6 0 .2 14 24.8 17 29.6.5.8 7.5 13 15.6 27s15.5 26.8 16.5 28.5c1.1 1.6 2.2 3.7 2.6 4.5.3.8 1.4 2.6 2.3 4 1 1.4 3 4.7 4.4 7.5 1.5 2.7 3.5 6.3 4.5 8 1 1.6 2.8 4.8 4.1 7 1.2 2.2 6.4 11.2 11.5 20l11.3 19.5c1.1 1.9 5.5 9.6 9.8 17 4.2 7.4 7.7 13.9 7.7 14.5 0 .5-2.1 4.5-4.7 8.8-2.5 4.3-4.6 8-4.6 8.4 0 .4-.6 1.4-1.4 2.2-.7.9-3.1 4.7-5.1 8.6-2.1 3.8-4.1 7.4-4.5 8-.5.5-5.1 8.4-10.3 17.5-5.2 9.1-15.4 26.8-22.6 39.3-7.3 12.6-14 24.3-15 26-6.9 11.9-28.7 49.7-30.2 52.2-1 1.6-2.6 4.3-3.5 6-.9 1.6-10.8 18.7-21.9 38-11.1 19.2-21.3 37-22.7 39.5-1.4 2.5-13.2 22.9-26.3 45.5-13.1 22.5-24.9 43-26.3 45.5-2.4 4.3-18.3 31.9-20.2 35-.5.8-6.8 11.8-14.1 24.5-7.3 12.6-15.9 27.4-19.1 32.8-3.2 5.4-5.8 9.9-5.8 10.1 0 .1-4.9 8.8-11 19.1-6 10.4-11 19.3-11 19.7 0 .5-126.9.7-282.1.6l-282.1-.3-5.5-9.5c-3.1-5.2-6.7-11.5-8.1-14-1.3-2.5-3.9-7-5.7-10-1.8-3-8.3-14.3-14.5-25-6.2-10.7-12-20.9-13-22.5-.9-1.7-4.3-7.5-7.5-13s-11.9-20.6-19.3-33.5c-7.4-12.9-17.5-30.3-22.3-38.7-4.9-8.3-9.7-16.7-10.7-18.5-3.2-5.6-16.2-28.2-17.2-29.8-1.5-2.4-10-17.1-12.8-22-1.3-2.5-8.3-14.6-15.5-27-7.2-12.4-16-27.7-19.7-34-3.7-6.3-11.2-19.4-16.7-29-5.6-9.6-18.3-31.7-28.3-49-10.1-17.3-19.4-33.5-20.8-36-1.4-2.5-4.2-7.4-6.4-10.9-2.1-3.4-3.8-6.5-3.8-6.7 0-.3-1.1-2.1-2.3-4.2-1.3-2-3.5-5.7-4.9-8.2-5.3-9.6-22.1-38.7-24.2-42l-2.3-3.5 19.6-34c10.8-18.7 26.8-46.4 35.5-61.5 8.8-15.1 16.8-29 17.8-30.8 1-1.8 5.9-10.3 10.8-18.7 4.9-8.4 9.8-16.9 10.8-18.7 1.1-1.8 12.9-22.4 26.4-45.8 13.5-23.4 25.5-44.1 26.6-46 1.1-1.9 6.1-10.7 11.2-19.5s10.1-17.4 11-19c5.4-9.4 25.3-43.7 35-60.5 6.2-10.7 12.1-20.9 13-22.5.9-1.7 8.6-14.9 17-29.5s16.3-28.4 17.6-30.7c1.3-2.3 5.4-9.3 9-15.5 3.7-6.2 8-13.8 9.7-16.8 1.7-3 3.8-6.7 4.9-8.2 1-1.4 1.8-2.9 1.8-3.2 0-.4 1-2.1 2.1-3.9l2.1-3.2h281.3c154.8 0 281.5.2 281.7.5z"/></svg>